<svg version="1.1" id="Layer_1" xmlns="http://www.w3.org/2000/svg" xmlns:xlink="http://www.w3.org/1999/xlink" x="0px" y="0px"
	 width="100%" viewBox="0 0 1024 1024" enable-background="new 0 0 1024 1024" xml:space="preserve">
<path fill="#000000" opacity="1.000000" stroke="none" 
	d="
M594.231018,458.127441 
	C576.841492,500.185150 559.458801,541.833496 542.432617,583.627075 
	C537.943176,594.647156 530.907898,598.202637 514.998962,596.874878 
	C507.736023,596.268738 502.429535,592.224243 497.884308,586.723450 
	C482.283997,567.843567 466.556244,549.068970 450.859161,530.269226 
	C447.015747,525.666077 443.106079,521.118225 439.223022,516.548279 
	C435.108459,511.705841 434.459534,511.555878 430.484222,516.245605 
	C415.297424,534.161621 400.219574,552.169983 385.104065,570.146423 
	C378.458923,578.049316 371.765350,585.912476 365.212189,593.890991 
	C363.104584,596.457092 361.619812,596.713440 359.416321,593.908020 
	C323.088562,547.657043 286.694092,501.458557 250.312897,455.249573 
	C223.310669,420.953186 196.301590,386.662140 169.317276,352.351654 
	C168.110687,350.817505 166.459976,349.505310 166.266495,347.297424 
	C167.764923,345.359406 169.922562,345.960327 171.812775,345.955109 
	C192.642120,345.897644 213.471939,345.963013 234.300842,345.850342 
	C237.638412,345.832275 239.772141,347.027222 241.840790,349.645355 
	C281.397552,399.709320 321.047638,449.699585 360.693726,499.692932 
	C361.706970,500.970642 362.604980,502.436005 364.955750,503.199341 
	C387.897858,475.864563 410.975922,448.367859 434.664856,420.143280 
	C459.248291,449.309814 483.392944,477.955811 507.397003,506.434998 
	C510.524445,505.034668 511.058228,502.826935 511.843201,500.871887 
	C529.214539,457.606323 546.591492,414.342987 563.891235,371.048767 
	C570.501953,354.504700 583.069824,345.751587 600.862915,345.745544 
	C684.347656,345.717285 767.832458,345.713165 851.317200,345.740540 
	C853.381714,345.741211 855.636719,345.099823 857.966064,347.063873 
	C854.412842,353.247772 849.607849,358.513184 845.293884,364.091095 
	C834.695068,377.795044 823.811157,391.279083 813.266357,405.023834 
	C810.749512,408.304382 807.988831,409.420380 803.961731,409.413116 
	C749.471863,409.314850 694.981812,409.337006 640.491760,409.372620 
	C620.214355,409.385864 611.913818,415.115173 604.406433,433.812836 
	C601.180481,441.847198 597.723267,449.788727 594.231018,458.127441 
z"/>
<path fill="#000000" opacity="1.000000" stroke="none" 
	d="
M679.000000,502.900909 
	C661.338135,502.910522 644.176208,502.922272 627.014343,502.929474 
	C625.848389,502.929962 624.678406,502.952454 623.517090,502.869537 
	C613.204285,502.132965 610.685669,497.947601 614.705627,488.360504 
	C618.762024,478.686676 622.913757,469.049225 626.763123,459.292999 
	C631.441406,447.435913 640.586487,442.802765 652.659546,442.789246 
	C691.648865,442.745514 730.638245,442.767395 769.627563,442.764038 
	C773.531616,442.763702 777.435730,442.764008 782.956970,442.764008 
	C778.510132,448.655914 775.107666,453.251740 771.613770,457.777008 
	C760.925598,471.620300 750.135071,485.385376 739.550903,499.307465 
	C737.510315,501.991516 735.301575,503.058289 731.984863,503.031799 
	C714.490662,502.891907 696.995117,502.927368 679.000000,502.900909 
z"/>
<path fill="#000000" opacity="1.000000" stroke="none" 
	d="
M598.350586,539.087036 
	C603.080078,536.642029 607.817322,535.818665 612.686707,535.807373 
	C643.156311,535.736328 673.626038,535.708069 704.095764,535.692017 
	C705.884277,535.691040 707.768433,535.363586 709.425537,536.579712 
	C710.220459,538.550415 708.662598,539.674500 707.716919,540.897156 
	C693.970703,558.669983 680.163147,576.395264 666.424072,594.173584 
	C664.856750,596.201660 663.006836,597.122986 660.463745,597.118713 
	C634.822449,597.075989 609.181152,597.077148 583.539795,597.072021 
	C574.899109,597.070312 570.850342,591.243530 574.735718,583.697083 
	C580.201782,573.080627 584.217468,561.712341 588.755615,550.625549 
	C590.704407,545.864624 593.360229,541.777832 598.350586,539.087036 
z"/>
<path fill="#000000" opacity="1.000000" stroke="none" 
	d="
M221.058823,693.164490 
	C216.565643,693.774658 214.656158,691.792419 213.414291,688.056274 
	C211.329987,681.785583 208.745499,675.681091 205.988602,668.510986 
	C202.304688,675.470825 200.326065,681.943481 198.019821,688.248474 
	C196.764481,691.680481 195.076630,693.510803 191.161224,693.227051 
	C187.360748,692.951660 183.714050,693.695068 181.939728,688.633301 
	C178.084930,677.636536 173.658356,666.840149 169.468140,655.960876 
	C168.936462,654.580444 168.143829,653.235474 168.802826,651.678406 
	C177.740265,649.016052 180.038391,650.108582 183.023056,658.301331 
	C185.158325,664.162537 186.765121,670.244934 190.318558,677.002014 
	C193.157990,669.524475 195.770126,663.273254 197.884705,656.858032 
	C199.316772,652.513489 201.366135,650.495911 206.393158,650.539734 
	C211.236130,650.582092 212.698059,652.953552 213.933395,656.743286 
	C215.989868,663.051880 218.166397,669.332397 221.390564,675.778076 
	C224.778015,670.130859 226.480682,664.248962 228.867081,658.688171 
	C232.667358,649.832642 233.280594,649.445496 243.115082,651.377380 
	C244.241501,652.849609 243.301727,654.235413 242.776001,655.554504 
	C238.521133,666.230713 234.061722,676.828491 229.997406,687.575989 
	C228.405441,691.785706 226.111115,693.990784 221.058823,693.164490 
z"/>
<path fill="#000000" opacity="1.000000" stroke="none" 
	d="
M257.976501,666.010864 
	C258.009583,662.020691 258.039795,658.527893 258.062317,655.035156 
	C258.080017,652.282959 259.130280,650.710327 262.208038,650.732300 
	C272.520416,650.806091 282.836670,650.599487 293.145630,650.799377 
	C299.188995,650.916504 302.930939,654.185120 303.551361,660.129883 
	C304.339844,667.684387 305.800140,675.719543 296.763733,680.119385 
	C298.825653,684.454651 302.459625,687.461609 303.842743,691.773804 
	C297.826965,694.786926 292.714935,693.758728 289.103058,688.767944 
	C285.601410,683.929626 282.670197,678.993591 275.041626,679.902344 
	C270.493988,680.444031 268.903381,681.591675 269.196899,686.084656 
	C269.396027,689.133240 270.474121,693.058838 264.933289,693.151917 
	C258.987000,693.251892 257.998230,692.576660 257.955139,686.468994 
	C257.908173,679.815735 257.960999,673.161865 257.976501,666.010864 
M292.343719,667.808411 
	C292.762360,664.935547 293.334686,661.657288 289.310608,661.214966 
	C284.213287,660.654785 279.045441,660.617920 273.906860,660.592529 
	C270.409912,660.575317 269.130798,662.530029 269.223938,666.078796 
	C269.318939,669.699829 271.362885,670.021973 274.106934,670.072205 
	C277.257507,670.129822 280.406036,670.507019 283.553284,670.481079 
	C286.472717,670.457031 289.594025,670.938416 292.343719,667.808411 
z"/>
<path fill="#000000" opacity="1.000000" stroke="none" 
	d="
M574.057251,650.630127 
	C583.871094,650.624878 593.195557,650.768005 602.512268,650.563171 
	C606.390076,650.477966 607.849731,651.888672 607.935974,655.725830 
	C608.024475,659.661377 606.440613,661.058533 602.621460,660.961670 
	C596.468079,660.805542 590.306763,660.954895 584.148926,660.993469 
	C582.652771,661.002869 581.153076,661.031067 579.662109,661.144348 
	C577.727966,661.291382 576.558105,662.348083 576.533142,664.332031 
	C576.502686,666.755676 578.332275,666.794067 580.036194,666.801819 
	C586.194946,666.829773 592.358154,666.956726 598.511108,666.766541 
	C602.312744,666.649048 603.937134,668.049316 603.986206,671.935852 
	C604.037659,676.004089 601.805481,676.504395 598.552795,676.438110 
	C592.563049,676.315979 586.568909,676.414673 580.576599,676.406128 
	C578.202820,676.402710 576.251709,676.722900 576.362244,679.879272 
	C576.463013,682.754211 578.330688,682.992920 580.456543,682.997681 
	C587.780518,683.013977 595.105713,683.091492 602.427856,682.976929 
	C606.067871,682.919983 608.039612,684.036499 607.963135,688.094910 
	C607.890137,691.969116 606.265137,693.290710 602.459229,693.231201 
	C591.642273,693.062256 580.819275,693.067078 570.002258,693.235413 
	C566.004700,693.297607 564.782959,691.595764 564.836426,687.842041 
	C564.971375,678.356140 564.858765,668.866821 564.850342,659.378845 
	C564.842590,650.727966 564.845459,650.727966 574.057251,650.630127 
z"/>
<path fill="#000000" opacity="1.000000" stroke="none" 
	d="
M831.725220,656.159546 
	C831.344177,652.046326 832.921204,650.625610 836.608459,650.670105 
	C847.432373,650.800659 858.260864,650.791199 869.084106,650.618713 
	C872.814758,650.559326 874.022583,652.117188 874.120239,655.646912 
	C874.220947,659.286377 872.776978,660.871277 869.203613,660.842529 
	C862.878479,660.791687 856.552673,660.831970 850.227112,660.814941 
	C849.232422,660.812256 848.224426,660.577698 847.246277,660.679199 
	C845.169250,660.894653 843.200439,661.330505 843.350891,664.145142 
	C843.493286,666.807434 845.418274,666.799011 847.288391,666.807190 
	C853.284058,666.833496 859.283447,666.945129 865.274414,666.775635 
	C869.018555,666.669678 870.197998,668.354126 870.242432,671.878052 
	C870.287720,675.470703 868.627441,676.512634 865.362793,676.442566 
	C859.703735,676.321106 854.039734,676.353577 848.378967,676.419800 
	C846.034790,676.447205 843.430603,676.432129 843.367493,679.825867 
	C843.299011,683.506775 846.113770,682.947632 848.353882,682.969849 
	C855.181946,683.037720 862.012573,683.108093 868.838867,682.987671 
	C872.648193,682.920471 874.223450,684.445679 874.195923,688.321716 
	C874.168945,692.106995 872.395020,693.216187 868.941345,693.194214 
	C858.116089,693.125366 847.288452,693.111084 836.464783,693.274963 
	C832.651245,693.332703 831.610229,691.625671 831.656250,688.119446 
	C831.794006,677.628296 831.716980,667.134338 831.725220,656.159546 
z"/>
<path fill="#000000" opacity="1.000000" stroke="none" 
	d="
M658.731628,660.049011 
	C658.747620,658.561523 658.854675,657.554138 658.755249,656.567505 
	C658.341003,652.456482 659.696777,650.612000 664.280151,650.572388 
	C669.037903,650.531372 670.318054,652.397400 670.227966,656.759888 
	C670.032227,666.236145 670.256958,675.720642 670.101440,685.198364 
	C670.058289,687.827393 671.597534,691.682434 668.149841,692.717834 
	C664.264893,693.884583 660.006226,693.940979 656.642822,690.276550 
	C650.909058,684.029724 644.953979,677.985229 639.055908,671.890564 
	C637.823242,670.616821 636.872742,668.964966 634.144714,668.175171 
	C634.144714,674.862610 633.972412,681.264526 634.202698,687.651855 
	C634.367615,692.226257 632.133667,693.186401 628.093750,693.254761 
	C623.813538,693.327148 622.663940,691.542114 622.739929,687.575562 
	C622.927979,677.766296 622.711792,667.949524 622.863586,658.139038 
	C622.901428,655.691711 621.424255,651.959656 624.767395,651.157837 
	C628.425232,650.280457 632.637512,649.448425 635.978333,652.924805 
	C642.200745,659.399780 648.532715,665.769592 654.837891,672.164612 
	C655.753540,673.093262 656.773499,673.919006 658.166260,675.170776 
	C659.399475,669.995972 658.424683,665.229797 658.731628,660.049011 
z"/>
<path fill="#000000" opacity="1.000000" stroke="none" 
	d="
M780.308594,670.936523 
	C780.292603,677.151855 780.152344,682.980103 780.324707,688.799072 
	C780.448059,692.966736 777.969543,693.235657 774.829102,693.225586 
	C771.732910,693.215698 769.060791,693.006104 769.121765,688.901855 
	C769.294312,677.269531 769.455505,665.636841 769.555725,654.003723 
	C769.575928,651.655701 770.638184,650.837341 772.892822,650.714905 
	C777.353455,650.472656 781.241943,650.893188 784.514587,654.742432 
	C789.140076,660.183044 794.324341,665.151489 799.323853,670.269043 
	C800.667542,671.644592 801.762634,673.460449 804.863525,673.741150 
	C804.863525,667.887146 805.064453,662.144897 804.797791,656.424438 
	C804.596680,652.110168 806.116394,650.574341 810.518921,650.589722 
	C814.811279,650.604736 816.436462,651.888855 816.319214,656.317688 
	C816.059326,666.129028 816.308899,675.952881 816.176086,685.769287 
	C816.142700,688.236633 817.526489,691.856934 814.144104,692.743103 
	C810.421204,693.718567 806.467896,694.104126 803.162598,690.395447 
	C797.299805,683.817078 791.003601,677.622925 784.832275,671.323425 
	C783.716125,670.184082 782.842102,668.658508 781.115417,668.270752 
	C780.166138,668.844360 780.465210,669.769531 780.308594,670.936523 
z"/>
<path fill="#000000" opacity="1.000000" stroke="none" 
	d="
M684.654053,663.274414 
	C685.280640,654.888123 689.236084,650.871582 696.995178,650.729248 
	C705.821533,650.567261 714.655212,650.788025 723.480530,650.599670 
	C727.378723,650.516479 728.218811,652.383667 728.271057,655.800232 
	C728.325928,659.388550 727.064697,661.009888 723.374146,660.956909 
	C716.212708,660.853943 709.046021,661.071106 701.886047,660.928040 
	C697.638184,660.843140 695.678040,662.592041 695.930298,666.855774 
	C696.028503,668.516052 695.956848,670.186584 695.957397,671.852417 
	C695.961121,683.122498 695.960693,683.121887 707.487427,683.029114 
	C708.820068,683.018372 710.153137,683.034424 711.485535,683.012878 
	C717.048279,682.922913 717.807312,682.110779 717.562439,676.542053 
	C717.302734,670.638916 719.425598,668.911438 725.170288,670.227478 
	C727.056580,670.659485 728.126709,671.606445 728.137634,673.605286 
	C728.166870,678.935425 728.201355,684.265564 728.248535,689.595642 
	C728.271057,692.146240 726.885071,693.169800 724.489014,693.167480 
	C714.660583,693.157898 704.826172,693.359131 695.005798,693.074524 
	C688.838928,692.895752 684.982544,688.440491 684.745178,681.727783 
	C684.533264,675.737549 684.669250,669.734924 684.654053,663.274414 
z"/>
<path fill="#000000" opacity="1.000000" stroke="none" 
	d="
M321.621155,681.668396 
	C326.568451,672.385559 331.329102,663.423157 336.160156,654.498840 
	C338.724243,649.762390 348.838623,648.794128 351.313751,653.309387 
	C357.948578,665.413025 364.209839,677.721619 370.589569,689.964355 
	C370.874481,690.511047 370.865448,691.210938 370.986084,691.803955 
	C364.285065,694.726746 360.825836,693.798828 357.421631,688.026733 
	C356.260803,686.058533 354.782227,685.251343 352.559235,685.279053 
	C346.901855,685.349548 341.242920,685.335571 335.584961,685.302673 
	C333.589417,685.291138 332.193176,685.996216 331.032898,687.729675 
	C327.017914,693.728027 324.976044,694.356812 317.179199,692.264832 
	C317.130920,688.249939 320.105591,685.440918 321.621155,681.668396 
M341.210114,675.649536 
	C343.933014,675.492432 346.784790,676.301208 349.574097,674.719604 
	C348.583679,670.643127 346.805298,667.260132 343.925171,663.693542 
	C342.188385,666.843933 340.668243,669.546997 339.203552,672.279785 
	C338.384399,673.807983 338.214081,675.174072 341.210114,675.649536 
z"/>
<path fill="#000000" opacity="1.000000" stroke="none" 
	d="
M513.861023,650.772766 
	C516.798462,650.765137 517.352722,652.311890 517.351807,654.392456 
	C517.346680,666.031006 517.332031,677.669678 517.383362,689.308044 
	C517.405273,694.286072 513.735779,692.937561 510.984802,693.162842 
	C507.964539,693.410095 506.086273,692.398926 506.572388,688.944519 
	C506.595398,688.781006 506.584686,688.612244 506.583130,688.445984 
	C506.469604,676.386536 506.469543,676.386597 494.554932,676.358826 
	C494.388611,676.358459 494.222290,676.357849 494.055969,676.357544 
	C483.431396,676.339355 483.431427,676.339294 483.330811,686.867676 
	C483.272552,692.962769 482.875061,693.178467 476.787323,693.223511 
	C473.049530,693.251160 471.853271,691.681030 471.894104,688.121643 
	C472.016113,677.478516 472.114014,666.827942 471.835968,656.190369 
	C471.703186,651.109741 474.322479,650.750854 478.353210,650.600647 
	C482.983368,650.428162 483.404449,652.744446 483.393707,656.411194 
	C483.363190,666.838562 483.466705,666.838867 494.108978,666.814392 
	C506.045959,666.786926 506.273834,666.791870 506.524841,655.186035 
	C506.645905,649.587097 510.280823,650.928711 513.861023,650.772766 
z"/>
<path fill="#000000" opacity="1.000000" stroke="none" 
	d="
M455.381073,660.771301 
	C451.780212,660.916138 448.609497,661.153259 445.456024,661.010193 
	C441.514526,660.831360 440.168976,662.607056 440.251495,666.396301 
	C440.410980,673.721375 440.134277,681.056885 440.339386,688.379639 
	C440.461761,692.748047 438.025970,693.199524 434.618286,693.157288 
	C431.354553,693.116821 428.619690,693.031250 428.720917,688.544067 
	C428.889923,681.052856 428.628967,673.551636 428.808868,666.060913 
	C428.895935,662.435120 427.586151,660.825500 423.917694,660.973877 
	C420.759613,661.101685 417.591125,660.970215 414.427216,660.954773 
	C410.841522,660.937195 410.643860,658.518677 410.678131,655.810059 
	C410.711365,653.181702 410.633575,650.705750 414.387634,650.718994 
	C427.878357,650.766724 441.369415,650.732178 454.860321,650.727722 
	C456.642181,650.727173 458.505707,651.032959 458.530701,653.173035 
	C458.562805,655.922913 459.971405,659.380615 455.381073,660.771301 
z"/>
<path fill="#000000" opacity="1.000000" stroke="none" 
	d="
M754.354431,685.899719 
	C754.267334,693.016052 753.631287,693.503906 747.312805,693.206482 
	C744.083984,693.054504 742.903687,691.545410 742.911804,688.537354 
	C742.941895,677.409180 743.014343,666.279968 742.889404,655.153198 
	C742.838867,650.647583 745.615234,650.722290 748.835632,650.656372 
	C752.345703,650.584412 754.481384,651.263550 754.396240,655.517517 
	C754.196777,665.479004 754.345947,675.447449 754.354431,685.899719 
z"/>
<path fill="#000000" opacity="1.000000" stroke="none" 
	d="
M395.401947,666.003723 
	C395.382721,673.830994 395.215973,681.162476 395.399261,688.485107 
	C395.497711,692.417358 393.590851,693.309570 390.186371,693.203125 
	C387.045013,693.104919 383.988190,693.328125 384.013275,688.815369 
	C384.076233,677.491638 384.058533,666.167480 384.098816,654.843628 
	C384.116821,649.774780 387.913422,650.952209 390.916748,650.727661 
	C394.072235,650.491638 395.526093,651.722412 395.384399,655.013977 
	C395.234222,658.504028 395.382294,662.006897 395.401947,666.003723 
z"/>
</svg>